<svg xmlns="http://www.w3.org/2000/svg" xmlns:xlink="http://www.w3.org/1999/xlink" version="1.1" x="0px" y="0px" viewBox="0 0 100 125" enable-background="new 0 0 100 100" xml:space="preserve"><path fill="#000000" d="M58.753,38.132h22.993l10.291-8.361L81.746,21.41H58.753h-0.727v-9.462c0-1.748-1.35-3.178-3-3.178h-6.39  c-1.65,0-3,1.43-3,3.178v9.462h-9.875v8.361v8.361h9.875v12.326h-1.889H20.754l-10.291,8.361l10.291,8.361h22.993h1.889v22.893  c0,1.424,0.943,2.619,2.21,2.982V67.18h1v25.999h1.323V67.18h1v25.999h1.323V67.18h1v25.999h1.323V67.18h1v25.875  c1.268-0.363,2.21-1.558,2.21-2.982V67.18h8.713v-8.361v-8.361h-8.713V38.132H58.753z M67.204,27.331h4.4v-2.175l3.997,2.307  l3.997,2.307l-3.997,2.308l-3.997,2.307V32.21h-4.4V27.331z M35.296,61.259h-4.401v2.175l-3.997-2.308l-3.997-2.307l3.997-2.307  l3.997-2.308v2.175h4.401V61.259z M55.315,11.75c0.276,0,0.5,0.237,0.5,0.53v9.129h-1V12.28  C54.815,11.987,55.039,11.75,55.315,11.75z M52.493,50.458V38.132h1v12.326H52.493z M51.169,38.132v12.326h-1V38.132H51.169z   M52.993,11.75c0.276,0,0.5,0.237,0.5,0.53v9.129h-1V12.28C52.493,11.987,52.716,11.75,52.993,11.75z M50.669,11.75  c0.276,0,0.5,0.237,0.5,0.53v9.129h-1V12.28C50.169,11.987,50.393,11.75,50.669,11.75z M47.846,12.28c0-0.293,0.224-0.53,0.5-0.53  s0.5,0.237,0.5,0.53v9.129h-1V12.28z M47.846,38.132h1v12.326h-1V38.132z M55.815,50.458h-1V38.132h1V50.458z"/><text x="0" y="115" fill="#000000" font-size="5px" font-weight="bold" font-family="'Helvetica Neue', Helvetica, Arial-Unicode, Arial, Sans-serif">Created by Linseed Studio</text><text x="0" y="120" fill="#000000" font-size="5px" font-weight="bold" font-family="'Helvetica Neue', Helvetica, Arial-Unicode, Arial, Sans-serif">from the Noun Project</text></svg>