<svg id="Layer_1" data-name="Layer 1" xmlns="http://www.w3.org/2000/svg" viewBox="0 0 100 100"><defs><style>.cls-1{fill:#1a1a1a;}.cls-2{fill:#fff;}</style></defs><title>noun_Hiking Trail_2891662</title><rect class="cls-1" width="100" height="100"/><path class="cls-2" d="M31.23,22.91a4.47,4.47,0,1,1-4.47,4.47A4.47,4.47,0,0,1,31.23,22.91ZM18.4,49.84l10-7q1.17-4,2.32-7.9a6.43,6.43,0,0,1,2.91-3.25c1.85-.76,3.45-.16,5,.82a43,43,0,0,1,6.73,13.11c1,3.24.6,5.5-.35,7.31Q48.87,65,52.76,77.12L49.27,79.9,39.52,60.05l-3.94,4.76-.7,4.76,5.22,9.17-2.67.46-3.25-5.34q-.57,3-1.16,5.92l-5.45-1.16q1.09-6,2.2-12L21.42,52.39l-1.28.47Zm5.46,1.51,6.84,11a80.79,80.79,0,0,1,5.23-12.18L33,44.62l-1.62,2.9Zm15.32-20.2c.52-1.68,1.84-2.42,3.94-2.2l5.81,12.42a3.89,3.89,0,0,1-4,2S39.29,31.27,39.18,31.15ZM60.88,28A4.08,4.08,0,1,1,56.81,32,4.08,4.08,0,0,1,60.88,28ZM49.19,52.5l9.1-6.34c.7-2.4,1.41-4.8,2.11-7.19a5.93,5.93,0,0,1,2.65-3,4.72,4.72,0,0,1,4.55.74,39.37,39.37,0,0,1,6.13,12c.87,2.95.55,5-.32,6.66q3.56,11,7.09,22L77.33,79.9q-4.45-9-8.89-18.09l-3.6,4.34-.63,4.34L69,78.84l-2.43.43-3-4.87q-.54,2.7-1.06,5.4l-5-1.06,2-10.9-7.62-13-1.16.42Zm5,1.38,6.24,10a73.68,73.68,0,0,1,4.76-11.11l-2.64-5.07c-.5.88-1,1.76-1.48,2.64Zm14-18.41q.72-2.3,3.6-2Q74.36,39.13,77,44.78a3.54,3.54,0,0,1-3.6,1.8S68.23,35.58,68.12,35.47Z"/></svg>